<svg xmlns="http://www.w3.org/2000/svg" version="1.1" xmlns:xlink="http://www.w3.org/1999/xlink" xmlns:svgjs="http://svgjs.dev/svgjs" width="750" height="515" viewBox="0 0 374.67308349609374 312" class="svg-animations " style="background: rgb(246, 252, 255);"><svg viewBox="0 0 259.98089599609375 244.3856201171875" width="50" height="50" x="162.33654174804687" y="108.82524299621582" style="fill: rgb(77, 62, 252);"><svg xmlns="http://www.w3.org/2000/svg" viewBox="0 0 271.8 250.24"><path d="m157.6,124.42v6.75c0,8.5,3.87,12.46,11.28,12.46h9.35c8.83,0,14.84,7.18,14.84,14.83v7.86c0,8.51-3.85,13.63-12.86,13.63h-10.83c-9.48,0-14.42-4.33-14.42-13.18v-7.31c0-6.98-5.01-11.56-11.12-11.56h-16.13c-8.07,0-10.03,5.45-10.03,11.56v14.4c0,7.63,4.58,10.25,10.47,10.25h9.93c11.22,0,16.61,4.92,16.61,12.78v5.43c0,8.93,5.08,12.31,13.15,12.31h16.66c8.25,0,12.28-4.35,12.28-11.79v-6.09c0-10.25,5.68-13.52,16.58-13.52h11.47c6.32,0,9.24-3.93,9.24-9.16v-21.15c0-6.98-3.93-10.25-11.55-10.25h-13.74c-8.2,0-15.55-6.2-15.55-17.66v-6.75c0-8.5-3.87-12.46-11.28-12.46h-9.35c-8.83,0-14.84-7.18-14.84-14.82v-7.86c0-8.5,3.86-13.63,12.87-13.63h10.83c9.48,0,14.42,4.33,14.42,13.18v7.31c0,6.98,5.01,11.55,11.12,11.55h16.13c8.07,0,10.03-5.45,10.03-11.55v-14.4c0-7.63-4.58-10.25-10.47-10.25h-9.93c-11.22,0-16.61-4.92-16.61-12.78v-5.14c0-8.93-4.83-12.6-12.91-12.6h-16.91c-8.25,0-12.28,4.35-12.28,11.8v6.08c0,10.25-5.68,13.52-16.58,13.52h-11.47c-6.32,0-9.23,3.92-9.23,9.16v21.15c0,6.98,3.92,10.25,11.56,10.25h13.74c8.2-.01,15.56,6.19,15.56,17.65h0Z"></path><path d="m259.87,142.85c6.59,0,11.93-5.35,11.93-11.93v-9.11c0-6.59-5.34-11.94-11.93-11.94h-9.11c-6.59,0-11.93,5.35-11.93,11.94v9.11c0,6.59,5.35,11.93,11.93,11.93h9.11Z"></path><path d="m92.02,66.2h10.2c7.63,0,11.56-3.27,11.56-10.25v-6.69c.38-10.83,7.54-15.79,15.52-15.79h10.2c7.64,0,11.56-3.27,11.56-10.25v-14.07c0-5.23-2.91-9.16-9.23-9.16h-19.3c-6.26,0-8.92,2.9-8.92,9.43v8.25c0,7.44-5.7,14.42-14.14,14.79h-14.22c-6.25,0-8.92,2.9-8.92,9.43v8.5c0,7.65-6,14.83-14.84,14.83h-9.35c-7.42,0-11.28,3.95-11.28,12.45v10.41c0,11.46-7.35,17.66-15.55,17.66h-13.74c-7.63,0-11.55,3.27-11.55,10.25v22.93c0,6.98,3.92,10.25,11.55,10.25h13.74c8.2,0,15.55,3.56,15.55,15.02v8.18c0,8.5,3.87,12.45,11.28,12.45h9.35c8.84,0,14.84,7.18,14.84,14.83v8.61c0,6.53,2.66,9.43,8.92,9.43h14.28l-.07.08c8.44.37,14.14,7.35,14.14,14.79v8.25c0,6.53,2.66,9.43,8.92,9.43h19.3c6.32,0,9.24-3.92,9.24-9.16v-14.07c0-6.98-3.93-10.25-11.55-10.25h-10.2c-7.96,0-15.09-4.94-15.51-15.7v-6.96c0-6.98-3.93-10.25-11.55-10.25h-10.2c-8.21,0-15.56-6.2-15.56-17.66v-5.54c0-8.5,3.87-12.45,11.29-12.45h9.34c8.84,0,14.85-7.18,14.85-14.83v-11.83c0-7.65-6.01-14.83-14.85-14.83h-9.34c-7.42,0-11.29-3.95-11.29-12.45v-11.39c0-11.45,7.35-16.67,15.56-16.67h0Z"></path></svg></svg><text fill="#4d3efc" font-family="Courier New" font-size="32px" x="31.222756958007807" y="185.58252332742927"><tspan dy="0" x="31.222756958007807">Gestão de Cursos</tspan></text><text fill="#8c83ed" font-family="Lucida Console" font-size="16px" x="187.33654174804687" y="203.17475700378418"><tspan dy="0" x="187.33654174804687"></tspan></text></svg>